HIERARCHY
ROOT root
{
	OFFSET	0	13.1	24.9
	CHANNELS 6  Xposition Yposition Zposition Xrotation Yrotation Zrotation
	JOINT spine_1
	{
		OFFSET	0	9.99999	0
		CHANNELS 3  Xrotation Yrotation Zrotation
		JOINT spine_2
		{
			OFFSET	0	112	-10
			CHANNELS 3  Xrotation Yrotation Zrotation
			JOINT spine_3
			{
				OFFSET	0	206.5	19.3
				CHANNELS 3  Xrotation Yrotation Zrotation
				JOINT spine_4
				{
					OFFSET	0	110.4	14.6
					CHANNELS 3  Xrotation Yrotation Zrotation
					JOINT neck_1
					{
						OFFSET	0	71.8	-50.3
						CHANNELS 3  Xrotation Yrotation Zrotation
						JOINT neck_2
						{
							OFFSET	0	86.2	-25.8
							CHANNELS 3  Xrotation Yrotation Zrotation
							JOINT head_ee
							{
								OFFSET	0	179.8	-8.7
								CHANNELS 3  Xrotation Yrotation Zrotation
								End Site
								{
									OFFSET	1	0	0
								}
							}
						}
					}
					JOINT left_clavicle
					{
						OFFSET	-43.2	22.4	-70.8
						CHANNELS 3  Xrotation Yrotation Zrotation
						JOINT left_shoulder
						{
							OFFSET	-93.9	-5.79999	48.7
							CHANNELS 3  Xrotation Yrotation Zrotation
							JOINT left_elbow
							{
								OFFSET	-291.4	-30.8	15.2
								CHANNELS 3  Xrotation Yrotation Zrotation
								JOINT left_lowarm_twist
								{
									OFFSET	-110.7	-3.89999	13.6
									CHANNELS 3  Xrotation Yrotation Zrotation
									JOINT left_hand
									{
										OFFSET	-110.7	-3.89999	13.6
										CHANNELS 3  Xrotation Yrotation Zrotation
										JOINT left_ee
										{
											OFFSET	-80.8	-5.10001	12.1
											CHANNELS 3  Xrotation Yrotation Zrotation
											End Site
											{
												OFFSET	1	0	0
											}
										}
									}
								}
							}
						}
					}
					JOINT right_clavicle
					{
						OFFSET	43.2	22.4	-70.8
						CHANNELS 3  Xrotation Yrotation Zrotation
						JOINT right_shoulder
						{
							OFFSET	93.9	-5.79999	48.7
							CHANNELS 3  Xrotation Yrotation Zrotation
							JOINT right_elbow
							{
								OFFSET	291.4	-30.8	15.2
								CHANNELS 3  Xrotation Yrotation Zrotation
								JOINT right_lowarm_twist
								{
									OFFSET	110.7	-3.89999	13.6
									CHANNELS 3  Xrotation Yrotation Zrotation
									JOINT right_hand
									{
										OFFSET	110.7	-3.89999	13.6
										CHANNELS 3  Xrotation Yrotation Zrotation
										JOINT right_ee
										{
											OFFSET	80.8	-5.10001	12.1
											CHANNELS 3  Xrotation Yrotation Zrotation
											End Site
											{
												OFFSET	1	0	0
											}
										}
									}
								}
							}
						}
					}
				}
			}
		}
	}
	JOINT left_hip
	{
		OFFSET	-82.8	-127.5	0.300001
		CHANNELS 3  Xrotation Yrotation Zrotation
		JOINT left_knee
		{
			OFFSET	-28.2	-396.7	2.2
			CHANNELS 3  Xrotation Yrotation Zrotation
			JOINT left_ankle
			{
				OFFSET	-11.7	-411.3	35.4
				CHANNELS 3  Xrotation Yrotation Zrotation
				JOINT left_toes
				{
					OFFSET	0	-60	-88.6
					CHANNELS 3  Xrotation Yrotation Zrotation
					JOINT left_foot_ee
					{
						OFFSET	-22.5	-16.5	-42.2
						CHANNELS 3  Xrotation Yrotation Zrotation
						End Site
						{
							OFFSET	1	0	0
						}
					}
				}
			}
		}
	}
	JOINT right_hip
	{
		OFFSET	82.8	-127.5	0.300001
		CHANNELS 3  Xrotation Yrotation Zrotation
		JOINT right_knee
		{
			OFFSET	28.2	-396.7	2.2
			CHANNELS 3  Xrotation Yrotation Zrotation
			JOINT right_ankle
			{
				OFFSET	11.7	-411.3	35.4
				CHANNELS 3  Xrotation Yrotation Zrotation
				JOINT right_toes
				{
					OFFSET	0	-60	-88.6
					CHANNELS 3  Xrotation Yrotation Zrotation
					JOINT right_foot_ee
					{
						OFFSET	22.5	-16.5	-42.2
						CHANNELS 3  Xrotation Yrotation Zrotation
						End Site
						{
							OFFSET	1	0	0
						}
					}
				}
			}
		}
	}
}
MOTION
Frames: 5
Frame Time: 0.02
1372.05 701.618 -1475.22 -12.45341305 43.7929955414 6.63138978226 4.6743 0.447349 3.76824 4.68217 0.206836 3.78903 4.68978 -0.285995 3.78389 4.66995 0.31475 3.78161 -13.8673 13.2169 -2.88947 -14.4318 26.9603 1.5836 -0.0 0.0 -0.0 -7.87193 3.98146 -14.498 2.45195 -4.03097 53.9125 92.0554 -87.9809 90.0363 37.1693 -0.210275 -4.66126 -0.151767 -6.94642 -3.9745 -0.0 0.0 -0.0 9.06258 -5.397 -17.4705 -56.8852 50.6238 -57.2534 0.210061 5.94085 -0.0109001 60.5827 1.82608 7.16142 -5.18472 -17.0081 25.684 0.0 0.0 0.0 -157.89 83.54 146.761 -1.23034 0.0487008 0.182528 37.2867 -29.7761 -5.62863 -11.8538 0.0 0.0 -0.0 0.0 -0.0 45.0332 27.1228 -22.2334 1.56557 0.0676275 0.230712 -3.2594 -8.60261 -0.480429 10.4349 -0.0 -0.0 0.0 0.0 0.0 
1296.02920699 700.206 -1492.11600928 -14.8410782228 45.4303990193 8.06843540132 4.77518 0.508595 3.4859 4.78189 0.285888 3.51116 4.79404 -0.164973 3.51891 4.77698 0.392494 3.50086 -12.7367 12.5875 -4.83506 -13.1507 26.9534 -0.778574 -0.0 0.0 -0.0 -7.9344 7.05968 -13.7184 1.56463 -4.38196 55.7057 153.87 -85.4262 151.78 33.5145 -0.0555788 -4.22047 0.173883 -9.158 -2.71642 -0.0 0.0 -0.0 9.65508 -2.78448 -18.801 -55.7774 50.8217 -56.0373 0.257597 7.27214 -0.0163694 66.6724 2.40259 7.68775 -5.74813 -23.622 24.4031 0.0 0.0 0.0 -145.403 82.5815 133.351 -1.25019 0.0494547 0.185482 36.0053 -28.9928 -5.44143 -12.6372 0.0 0.0 -0.0 0.0 -0.0 44.9911 28.7374 -20.4074 -6.56418 -0.214079 -0.984113 -11.476 -9.98693 -1.71452 12.6518 -0.0 -0.0 0.0 0.0 0.0 
1209.80809835 708.209 -1517.19226642 -14.2949397472 45.8588550901 7.61507885128 4.68246 0.739372 3.2154 4.68805 0.533381 3.25587 4.71399 0.108938 3.29743 4.69937 0.628062 3.23896 -12.5962 13.5008 -4.74157 -13.0686 28.6282 -0.421026 -0.0 0.0 -0.0 -8.28464 8.91967 -13.8101 -3.3954 -5.75846 58.6577 115.488 -87.7649 113.453 27.197 0.144448 -3.43875 0.258963 -14.2326 -4.31217 -0.0 0.0 -0.0 10.4166 2.30636 -20.6287 -54.906 53.2877 -54.4437 0.440986 12.323 -0.0476067 72.9397 3.05097 8.16277 -5.74036 -28.9594 20.0559 0.0 0.0 0.0 -122.448 80.4839 108.798 3.70998 -0.17046 -0.543621 33.4448 -25.5335 -4.96119 -16.8147 0.0 0.0 -0.0 0.0 -0.0 41.5273 32.3241 -19.6655 -10.8848 -0.292908 -1.64227 2.69735 -5.9954 0.392378 9.65915 -0.0 -0.0 0.0 0.0 0.0 
1192.680779 710.806 -1527.26156566 -13.7063858995 45.4092818635 7.5534484042 4.67658 0.808688 3.2183 4.68214 0.602373 3.26317 4.7121 0.176419 3.31356 4.69746 0.697242 3.24424 -12.1019 13.9459 -4.60489 -12.5571 29.3838 -0.283639 -0.0 0.0 -0.0 -8.11323 9.59479 -13.2757 -2.9179 -5.49569 58.8574 89.2899 -87.982 87.2726 22.0777 0.242596 -2.79239 -0.207122 -7.36929 -4.53003 -0.0 0.0 -0.0 10.7571 2.25093 -21.348 -54.7315 53.7184 -53.8289 0.449577 12.5555 -0.0494573 74.5432 3.22491 8.27274 -5.68709 -29.2026 19.5505 0.0 0.0 0.0 -125.153 80.3758 111.821 4.55848 -0.214378 -0.666357 33.0482 -20.7788 -4.69802 -16.9178 0.0 0.0 -0.0 0.0 -0.0 36.8588 36.3711 -18.7748 -4.03975 -0.145121 -0.602866 7.97502 -5.28074 1.14258 4.22458 -0.0 -0.0 0.0 0.0 0.0 
1160.54352781 712.855 -1542.21298786 -13.008946442 43.672305041 6.01970440287 4.6696 0.796676 3.30014 4.67547 0.585186 3.34408 4.70506 0.148491 3.39159 4.68966 0.681968 3.32571 -10.1529 15.0066 -7.10852 -10.386 33.0013 -3.00308 -0.0 0.0 -0.0 -8.65763 10.5244 -13.9844 -5.28975 -5.5915 60.082 23.1672 -84.8826 21.2323 22.9595 0.229815 -2.9043 -0.452519 -3.9361 -4.71709 -0.0 0.0 -0.0 11.533 4.08463 -23.1001 -52.6658 55.0578 -52.636 0.48081 13.3973 -0.0564708 74.328 3.2014 8.25827 -5.63188 -28.3342 19.9232 0.0 0.0 0.0 -117.623 80.581 103.688 3.59369 -0.164582 -0.52675 36.3117 -22.276 -5.10411 -16.8733 0.0 0.0 -0.0 0.0 -0.0 29.8033 38.3399 -15.3417 4.2161 0.196437 0.616909 9.33418 -3.17392 1.33438 -2.06837 0.0 0.0 0.0 0.0 0.0 
